<mxfile host="app.diagrams.net" modified="2022-07-19T18:06:58.324Z" agent="5.0 (Windows)" etag="1KsIUKijTdkftLkaODJO" version="20.1.1" type="github">
  <diagram id="znMlIvUV3mN52TpD6Qbn" name="Page-1">
    <mxGraphModel dx="896" dy="524" grid="1" gridSize="10" guides="1" tooltips="1" connect="1" arrows="1" fold="1" page="1" pageScale="1" pageWidth="850" pageHeight="1100" math="0" shadow="0">
      <root>
        <mxCell id="0" />
        <mxCell id="1" parent="0" />
        <mxCell id="u4yhF9v2eA8WhHUr94_W-89" value="" style="whiteSpace=wrap;html=1;aspect=fixed;" vertex="1" parent="1">
          <mxGeometry x="100" y="370" width="80" height="80" as="geometry" />
        </mxCell>
        <mxCell id="u4yhF9v2eA8WhHUr94_W-90" value="" style="whiteSpace=wrap;html=1;aspect=fixed;" vertex="1" parent="1">
          <mxGeometry x="110" y="380" width="80" height="80" as="geometry" />
        </mxCell>
        <mxCell id="u4yhF9v2eA8WhHUr94_W-220" style="edgeStyle=orthogonalEdgeStyle;rounded=0;orthogonalLoop=1;jettySize=auto;html=1;exitX=0.5;exitY=1;exitDx=0;exitDy=0;entryX=0.5;entryY=0;entryDx=0;entryDy=0;fontSize=18;" edge="1" parent="1" source="u4yhF9v2eA8WhHUr94_W-91">
          <mxGeometry relative="1" as="geometry">
            <mxPoint x="160" y="520" as="targetPoint" />
          </mxGeometry>
        </mxCell>
        <mxCell id="u4yhF9v2eA8WhHUr94_W-91" value="Blocks" style="whiteSpace=wrap;html=1;aspect=fixed;" vertex="1" parent="1">
          <mxGeometry x="120" y="390" width="80" height="80" as="geometry" />
        </mxCell>
        <mxCell id="u4yhF9v2eA8WhHUr94_W-102" style="edgeStyle=orthogonalEdgeStyle;rounded=0;orthogonalLoop=1;jettySize=auto;html=1;exitX=0.5;exitY=1;exitDx=0;exitDy=0;entryX=0.5;entryY=0;entryDx=0;entryDy=0;" edge="1" parent="1" source="u4yhF9v2eA8WhHUr94_W-101" target="u4yhF9v2eA8WhHUr94_W-89">
          <mxGeometry relative="1" as="geometry" />
        </mxCell>
        <mxCell id="u4yhF9v2eA8WhHUr94_W-101" value="Source Code" style="rounded=0;whiteSpace=wrap;html=1;" vertex="1" parent="1">
          <mxGeometry x="90" y="200" width="200" height="120" as="geometry" />
        </mxCell>
        <mxCell id="u4yhF9v2eA8WhHUr94_W-111" value="secrets.txt" style="rounded=0;whiteSpace=wrap;html=1;" vertex="1" parent="1">
          <mxGeometry x="510" y="377.5" width="154.55" height="85" as="geometry" />
        </mxCell>
        <mxCell id="u4yhF9v2eA8WhHUr94_W-222" style="edgeStyle=orthogonalEdgeStyle;rounded=0;orthogonalLoop=1;jettySize=auto;html=1;exitX=0.5;exitY=1;exitDx=0;exitDy=0;entryX=0.5;entryY=0;entryDx=0;entryDy=0;fontSize=18;" edge="1" parent="1" source="u4yhF9v2eA8WhHUr94_W-116">
          <mxGeometry relative="1" as="geometry">
            <mxPoint x="305" y="520" as="targetPoint" />
          </mxGeometry>
        </mxCell>
        <mxCell id="u4yhF9v2eA8WhHUr94_W-116" value="Initialization Vector" style="rounded=0;whiteSpace=wrap;html=1;" vertex="1" parent="1">
          <mxGeometry x="230" y="372.5" width="150" height="100" as="geometry" />
        </mxCell>
        <mxCell id="u4yhF9v2eA8WhHUr94_W-117" value="" style="endArrow=classic;html=1;rounded=0;exitX=0;exitY=0.25;exitDx=0;exitDy=0;entryX=1;entryY=0.25;entryDx=0;entryDy=0;" edge="1" parent="1" source="u4yhF9v2eA8WhHUr94_W-111" target="u4yhF9v2eA8WhHUr94_W-116">
          <mxGeometry relative="1" as="geometry">
            <mxPoint x="370" y="550" as="sourcePoint" />
            <mxPoint x="470" y="550" as="targetPoint" />
          </mxGeometry>
        </mxCell>
        <mxCell id="u4yhF9v2eA8WhHUr94_W-118" value="Random Hash" style="edgeLabel;resizable=0;html=1;align=center;verticalAlign=middle;" connectable="0" vertex="1" parent="u4yhF9v2eA8WhHUr94_W-117">
          <mxGeometry relative="1" as="geometry" />
        </mxCell>
        <mxCell id="u4yhF9v2eA8WhHUr94_W-119" value="" style="endArrow=classic;html=1;rounded=0;exitX=0;exitY=0.75;exitDx=0;exitDy=0;entryX=1;entryY=0.75;entryDx=0;entryDy=0;" edge="1" parent="1" source="u4yhF9v2eA8WhHUr94_W-111" target="u4yhF9v2eA8WhHUr94_W-116">
          <mxGeometry relative="1" as="geometry">
            <mxPoint x="370" y="550" as="sourcePoint" />
            <mxPoint x="470" y="550" as="targetPoint" />
          </mxGeometry>
        </mxCell>
        <mxCell id="u4yhF9v2eA8WhHUr94_W-120" value="Version Number" style="edgeLabel;resizable=0;html=1;align=center;verticalAlign=middle;" connectable="0" vertex="1" parent="u4yhF9v2eA8WhHUr94_W-119">
          <mxGeometry relative="1" as="geometry" />
        </mxCell>
        <mxCell id="u4yhF9v2eA8WhHUr94_W-183" value="" style="rounded=0;whiteSpace=wrap;html=1;" vertex="1" parent="1">
          <mxGeometry x="25" y="520" width="750" height="320" as="geometry" />
        </mxCell>
        <mxCell id="u4yhF9v2eA8WhHUr94_W-184" style="edgeStyle=orthogonalEdgeStyle;rounded=0;orthogonalLoop=1;jettySize=auto;html=1;exitX=0.5;exitY=1;exitDx=0;exitDy=0;entryX=0.5;entryY=0;entryDx=0;entryDy=0;" edge="1" parent="1" target="u4yhF9v2eA8WhHUr94_W-188">
          <mxGeometry relative="1" as="geometry">
            <mxPoint x="206" y="750" as="sourcePoint" />
          </mxGeometry>
        </mxCell>
        <mxCell id="u4yhF9v2eA8WhHUr94_W-185" style="edgeStyle=orthogonalEdgeStyle;rounded=0;orthogonalLoop=1;jettySize=auto;html=1;exitX=1;exitY=0.5;exitDx=0;exitDy=0;entryX=0;entryY=0.5;entryDx=0;entryDy=0;" edge="1" parent="1" source="u4yhF9v2eA8WhHUr94_W-186">
          <mxGeometry relative="1" as="geometry">
            <mxPoint x="156" y="730" as="targetPoint" />
          </mxGeometry>
        </mxCell>
        <mxCell id="u4yhF9v2eA8WhHUr94_W-186" value="Secret Key" style="text;html=1;strokeColor=none;fillColor=none;align=center;verticalAlign=middle;whiteSpace=wrap;rounded=0;" vertex="1" parent="1">
          <mxGeometry x="65" y="715" width="70" height="30" as="geometry" />
        </mxCell>
        <mxCell id="u4yhF9v2eA8WhHUr94_W-187" style="edgeStyle=orthogonalEdgeStyle;rounded=0;orthogonalLoop=1;jettySize=auto;html=1;exitX=1;exitY=0.5;exitDx=0;exitDy=0;entryX=0;entryY=0.5;entryDx=0;entryDy=0;" edge="1" parent="1" source="u4yhF9v2eA8WhHUr94_W-188" target="u4yhF9v2eA8WhHUr94_W-198">
          <mxGeometry relative="1" as="geometry">
            <Array as="points">
              <mxPoint x="276" y="790" />
              <mxPoint x="276" y="685" />
            </Array>
          </mxGeometry>
        </mxCell>
        <mxCell id="u4yhF9v2eA8WhHUr94_W-188" value="Ciphertext" style="rounded=0;whiteSpace=wrap;html=1;" vertex="1" parent="1">
          <mxGeometry x="156" y="775" width="100" height="30" as="geometry" />
        </mxCell>
        <mxCell id="u4yhF9v2eA8WhHUr94_W-189" value="IV" style="text;html=1;strokeColor=none;fillColor=none;align=center;verticalAlign=middle;whiteSpace=wrap;rounded=0;" vertex="1" parent="1">
          <mxGeometry x="87" y="670" width="29" height="30" as="geometry" />
        </mxCell>
        <mxCell id="u4yhF9v2eA8WhHUr94_W-190" value="Encryption" style="rounded=0;whiteSpace=wrap;html=1;" vertex="1" parent="1">
          <mxGeometry x="156" y="710" width="100" height="40" as="geometry" />
        </mxCell>
        <mxCell id="u4yhF9v2eA8WhHUr94_W-191" style="edgeStyle=orthogonalEdgeStyle;rounded=0;orthogonalLoop=1;jettySize=auto;html=1;exitX=0.5;exitY=1;exitDx=0;exitDy=0;entryX=0.5;entryY=0;entryDx=0;entryDy=0;" edge="1" parent="1" source="u4yhF9v2eA8WhHUr94_W-192" target="u4yhF9v2eA8WhHUr94_W-190">
          <mxGeometry relative="1" as="geometry" />
        </mxCell>
        <mxCell id="u4yhF9v2eA8WhHUr94_W-192" value="Block 1" style="rounded=0;whiteSpace=wrap;html=1;" vertex="1" parent="1">
          <mxGeometry x="156" y="620" width="100" height="40" as="geometry" />
        </mxCell>
        <mxCell id="u4yhF9v2eA8WhHUr94_W-193" value="" style="endArrow=none;html=1;rounded=0;exitX=1;exitY=0.5;exitDx=0;exitDy=0;" edge="1" parent="1" source="u4yhF9v2eA8WhHUr94_W-189">
          <mxGeometry width="50" height="50" relative="1" as="geometry">
            <mxPoint x="91" y="685" as="sourcePoint" />
            <mxPoint x="206" y="685" as="targetPoint" />
          </mxGeometry>
        </mxCell>
        <mxCell id="u4yhF9v2eA8WhHUr94_W-194" style="edgeStyle=orthogonalEdgeStyle;rounded=0;orthogonalLoop=1;jettySize=auto;html=1;exitX=0.5;exitY=1;exitDx=0;exitDy=0;entryX=0.5;entryY=0;entryDx=0;entryDy=0;" edge="1" parent="1" target="u4yhF9v2eA8WhHUr94_W-197">
          <mxGeometry relative="1" as="geometry">
            <mxPoint x="427" y="750" as="sourcePoint" />
          </mxGeometry>
        </mxCell>
        <mxCell id="u4yhF9v2eA8WhHUr94_W-195" style="edgeStyle=orthogonalEdgeStyle;rounded=0;orthogonalLoop=1;jettySize=auto;html=1;exitX=1;exitY=0.5;exitDx=0;exitDy=0;entryX=0;entryY=0.5;entryDx=0;entryDy=0;" edge="1" parent="1" source="u4yhF9v2eA8WhHUr94_W-196">
          <mxGeometry relative="1" as="geometry">
            <mxPoint x="377" y="730" as="targetPoint" />
          </mxGeometry>
        </mxCell>
        <mxCell id="u4yhF9v2eA8WhHUr94_W-196" value="Secret Key" style="text;html=1;strokeColor=none;fillColor=none;align=center;verticalAlign=middle;whiteSpace=wrap;rounded=0;" vertex="1" parent="1">
          <mxGeometry x="286" y="715" width="70" height="30" as="geometry" />
        </mxCell>
        <mxCell id="u4yhF9v2eA8WhHUr94_W-197" value="Ciphertext" style="rounded=0;whiteSpace=wrap;html=1;" vertex="1" parent="1">
          <mxGeometry x="377" y="775" width="100" height="30" as="geometry" />
        </mxCell>
        <mxCell id="u4yhF9v2eA8WhHUr94_W-198" value="IV" style="text;html=1;strokeColor=none;fillColor=none;align=center;verticalAlign=middle;whiteSpace=wrap;rounded=0;" vertex="1" parent="1">
          <mxGeometry x="308" y="670" width="29" height="30" as="geometry" />
        </mxCell>
        <mxCell id="u4yhF9v2eA8WhHUr94_W-199" value="Encryption" style="rounded=0;whiteSpace=wrap;html=1;" vertex="1" parent="1">
          <mxGeometry x="377" y="710" width="100" height="40" as="geometry" />
        </mxCell>
        <mxCell id="u4yhF9v2eA8WhHUr94_W-200" style="edgeStyle=orthogonalEdgeStyle;rounded=0;orthogonalLoop=1;jettySize=auto;html=1;exitX=0.5;exitY=1;exitDx=0;exitDy=0;entryX=0.5;entryY=0;entryDx=0;entryDy=0;" edge="1" parent="1" source="u4yhF9v2eA8WhHUr94_W-201" target="u4yhF9v2eA8WhHUr94_W-199">
          <mxGeometry relative="1" as="geometry" />
        </mxCell>
        <mxCell id="u4yhF9v2eA8WhHUr94_W-201" value="Block 2" style="rounded=0;whiteSpace=wrap;html=1;" vertex="1" parent="1">
          <mxGeometry x="377" y="620" width="100" height="40" as="geometry" />
        </mxCell>
        <mxCell id="u4yhF9v2eA8WhHUr94_W-202" value="" style="endArrow=none;html=1;rounded=0;exitX=1;exitY=0.5;exitDx=0;exitDy=0;" edge="1" parent="1" source="u4yhF9v2eA8WhHUr94_W-198">
          <mxGeometry width="50" height="50" relative="1" as="geometry">
            <mxPoint x="312" y="685" as="sourcePoint" />
            <mxPoint x="427" y="685" as="targetPoint" />
          </mxGeometry>
        </mxCell>
        <mxCell id="u4yhF9v2eA8WhHUr94_W-203" style="edgeStyle=orthogonalEdgeStyle;rounded=0;orthogonalLoop=1;jettySize=auto;html=1;exitX=1;exitY=0.5;exitDx=0;exitDy=0;entryX=0;entryY=0.5;entryDx=0;entryDy=0;" edge="1" parent="1" target="u4yhF9v2eA8WhHUr94_W-208">
          <mxGeometry relative="1" as="geometry">
            <mxPoint x="477" y="790" as="sourcePoint" />
            <Array as="points">
              <mxPoint x="497" y="790" />
              <mxPoint x="497" y="685" />
            </Array>
          </mxGeometry>
        </mxCell>
        <mxCell id="u4yhF9v2eA8WhHUr94_W-204" style="edgeStyle=orthogonalEdgeStyle;rounded=0;orthogonalLoop=1;jettySize=auto;html=1;exitX=0.5;exitY=1;exitDx=0;exitDy=0;entryX=0.5;entryY=0;entryDx=0;entryDy=0;" edge="1" parent="1" target="u4yhF9v2eA8WhHUr94_W-207">
          <mxGeometry relative="1" as="geometry">
            <mxPoint x="648" y="750" as="sourcePoint" />
          </mxGeometry>
        </mxCell>
        <mxCell id="u4yhF9v2eA8WhHUr94_W-205" style="edgeStyle=orthogonalEdgeStyle;rounded=0;orthogonalLoop=1;jettySize=auto;html=1;exitX=1;exitY=0.5;exitDx=0;exitDy=0;entryX=0;entryY=0.5;entryDx=0;entryDy=0;" edge="1" parent="1" source="u4yhF9v2eA8WhHUr94_W-206">
          <mxGeometry relative="1" as="geometry">
            <mxPoint x="598" y="730" as="targetPoint" />
          </mxGeometry>
        </mxCell>
        <mxCell id="u4yhF9v2eA8WhHUr94_W-206" value="Secret Key" style="text;html=1;strokeColor=none;fillColor=none;align=center;verticalAlign=middle;whiteSpace=wrap;rounded=0;" vertex="1" parent="1">
          <mxGeometry x="507" y="715" width="70" height="30" as="geometry" />
        </mxCell>
        <mxCell id="u4yhF9v2eA8WhHUr94_W-207" value="Ciphertext" style="rounded=0;whiteSpace=wrap;html=1;" vertex="1" parent="1">
          <mxGeometry x="598" y="775" width="100" height="30" as="geometry" />
        </mxCell>
        <mxCell id="u4yhF9v2eA8WhHUr94_W-208" value="IV" style="text;html=1;strokeColor=none;fillColor=none;align=center;verticalAlign=middle;whiteSpace=wrap;rounded=0;" vertex="1" parent="1">
          <mxGeometry x="529" y="670" width="29" height="30" as="geometry" />
        </mxCell>
        <mxCell id="u4yhF9v2eA8WhHUr94_W-209" value="Encryption" style="rounded=0;whiteSpace=wrap;html=1;" vertex="1" parent="1">
          <mxGeometry x="598" y="710" width="100" height="40" as="geometry" />
        </mxCell>
        <mxCell id="u4yhF9v2eA8WhHUr94_W-210" style="edgeStyle=orthogonalEdgeStyle;rounded=0;orthogonalLoop=1;jettySize=auto;html=1;exitX=0.5;exitY=1;exitDx=0;exitDy=0;entryX=0.5;entryY=0;entryDx=0;entryDy=0;" edge="1" parent="1" source="u4yhF9v2eA8WhHUr94_W-211" target="u4yhF9v2eA8WhHUr94_W-209">
          <mxGeometry relative="1" as="geometry" />
        </mxCell>
        <mxCell id="u4yhF9v2eA8WhHUr94_W-211" value="Block 3" style="rounded=0;whiteSpace=wrap;html=1;" vertex="1" parent="1">
          <mxGeometry x="598" y="620" width="100" height="40" as="geometry" />
        </mxCell>
        <mxCell id="u4yhF9v2eA8WhHUr94_W-212" value="" style="endArrow=none;html=1;rounded=0;exitX=1;exitY=0.5;exitDx=0;exitDy=0;" edge="1" parent="1" source="u4yhF9v2eA8WhHUr94_W-208">
          <mxGeometry width="50" height="50" relative="1" as="geometry">
            <mxPoint x="533" y="685" as="sourcePoint" />
            <mxPoint x="648" y="685" as="targetPoint" />
          </mxGeometry>
        </mxCell>
        <mxCell id="u4yhF9v2eA8WhHUr94_W-213" value="" style="endArrow=classic;html=1;rounded=0;exitX=0.5;exitY=1;exitDx=0;exitDy=0;entryX=0.75;entryY=0;entryDx=0;entryDy=0;" edge="1" parent="1" source="u4yhF9v2eA8WhHUr94_W-111" target="u4yhF9v2eA8WhHUr94_W-183">
          <mxGeometry relative="1" as="geometry">
            <mxPoint x="400" y="530" as="sourcePoint" />
            <mxPoint x="500" y="530" as="targetPoint" />
          </mxGeometry>
        </mxCell>
        <mxCell id="u4yhF9v2eA8WhHUr94_W-214" value="Secret Key" style="edgeLabel;resizable=0;html=1;align=center;verticalAlign=middle;" connectable="0" vertex="1" parent="u4yhF9v2eA8WhHUr94_W-213">
          <mxGeometry relative="1" as="geometry" />
        </mxCell>
        <mxCell id="u4yhF9v2eA8WhHUr94_W-216" value="&lt;font style=&quot;font-size: 18px;&quot;&gt;AES&lt;/font&gt; (CBC Mode)" style="text;html=1;strokeColor=none;fillColor=none;align=center;verticalAlign=middle;whiteSpace=wrap;rounded=0;" vertex="1" parent="1">
          <mxGeometry x="335" y="530" width="130" height="50" as="geometry" />
        </mxCell>
      </root>
    </mxGraphModel>
  </diagram>
</mxfile>
